<svg version="1.1" xmlns="http://www.w3.org/2000/svg" xmlns:xlink="http://www.w3.org/1999/xlink" width="200" height="50" viewBox="200 200 100 100">
  <g data-paper-data="{&quot;description&quot;:&quot;Logo for RESERVATION\n====================\n\nThis logo was generated by MarkMaker at http://emblemmatic.org/markmaker/ and may be composed of elements designed by others.\n\nThe font is Work Sans ExtraBold designed by Wei Huang and released under the OFL license via Google Fonts: https://www.google.com/fonts/specimen/Work%20Sans. The font includes this copyright statement: Copyright (c) 2014-2015 Wei Huang (wweeiihhuuaanngg@gmail.com)\n\nMarkMaker uses semantic data from the Princeton University WordNet database http://wordnet.princeton.edu and font descriptions from Google Fonts https://www.google.com/fonts.&quot;}" fill="none" fill-rule="nonzero" stroke="none" stroke-width="none" stroke-linecap="butt" stroke-linejoin="miter" stroke-miterlimit="10" stroke-dasharray="" stroke-dashoffset="0" font-family="none" font-weight="none" font-size="none" text-anchor="none" style="mix-blend-mode: normal">
    <path d="M50,300.98375 v-101.9675 h400 v101.9675 z" fill="#ea5757" stroke-width="0"></path>
    <g data-paper-data="{&quot;elementType&quot;:&quot;logo&quot;}" fill="#ffffff" stroke-width="1">
      <g data-paper-data="{&quot;elementType&quot;:&quot;text&quot;}">
        <g data-paper-data="{&quot;baseline&quot;:67,&quot;elementType&quot;:&quot;row&quot;}">
          <g data-paper-data="{&quot;baselineProportion&quot;:0.9852941176470589,&quot;fontSize&quot;:100,&quot;baseline&quot;:67,&quot;elementType&quot;:&quot;word&quot;}">
            <path d="M98.02471,255.24321h-4.30878v11.88808h-10.3826v-34.26258h17.54659c4.36069,0 7.68312,0.95174 9.96729,2.85521c2.28417,1.90348 3.42626,4.68947 3.42626,8.35799c0,4.98365 -2.12843,8.32338 -6.3853,10.01921l8.35799,13.03016h-11.5766l-6.64486,-11.88808M93.71593,248.02731h5.13939c1.73043,0 2.95904,-0.28552 3.68582,-0.85656c0.72678,-0.57104 1.09017,-1.51413 1.09017,-2.82926c0,-1.31513 -0.37204,-2.26687 -1.11613,-2.85521c-0.74409,-0.58835 -1.96404,-0.88252 -3.65987,-0.88252h-5.13939z" data-paper-data="{&quot;elementType&quot;:&quot;letter&quot;,&quot;baseline&quot;:66,&quot;baselineProportion&quot;:1,&quot;fontSize&quot;:100}"></path>
            <path d="M145.57701,259.1886v7.94269h-28.29258v-34.26258h27.61771v7.94269h-17.02746v5.55469h13.6012v7.37165h-13.6012v5.45086z" data-paper-data="{&quot;elementType&quot;:&quot;letter&quot;,&quot;baseline&quot;:66,&quot;baselineProportion&quot;:1,&quot;fontSize&quot;:100}"></path>
            <path d="M161.77387,232.34958c3.28782,0 6.11708,0.44126 8.48777,1.32378c2.37069,0.88252 4.64621,2.37935 6.82656,4.49047l-5.1913,6.69678c-1.38435,-1.592 -2.86387,-2.74274 -4.43856,-3.45221c-1.57469,-0.70948 -3.383,-1.06422 -5.42491,-1.06422c-1.48817,0 -2.64756,0.24226 -3.47817,0.72678c-0.83061,0.48452 -1.24591,1.12478 -1.24591,1.92078c0,0.62296 0.43261,1.10748 1.29782,1.45356c0.86522,0.34609 2.30148,0.70948 4.30878,1.09017c3.32243,0.58835 5.97865,1.35839 7.96864,2.31013c1.99,0.95174 3.44356,2.15439 4.36069,3.60795c0.91713,1.45356 1.37569,3.25321 1.37569,5.39895c0,2.28417 -0.65756,4.23956 -1.97269,5.86617c-1.31513,1.62661 -3.09748,2.85521 -5.34704,3.68582c-2.24956,0.83061 -4.7933,1.24591 -7.63121,1.24591c-3.94539,0 -7.12938,-0.42396 -9.55199,-1.27187c-2.42261,-0.84791 -4.67217,-2.189 -6.74869,-4.02326l4.93173,-7.26782c1.38435,1.62661 2.93308,2.79465 4.64621,3.50413c1.71313,0.70948 3.72908,1.06422 6.04786,1.06422c3.14939,0 4.72408,-0.76139 4.72408,-2.28417c0,-0.65756 -0.45856,-1.17669 -1.37569,-1.55739c-0.91713,-0.3807 -2.39665,-0.76139 -4.43856,-1.14209c-2.76869,-0.51913 -5.09613,-1.14209 -6.9823,-1.86887c-1.88617,-0.72678 -3.45221,-1.8083 -4.69813,-3.24456c-1.24591,-1.43626 -1.86887,-3.34839 -1.86887,-5.73639c0,-2.24956 0.60565,-4.23956 1.81695,-5.96999c1.2113,-1.73043 2.97634,-3.08017 5.29513,-4.04921c2.31878,-0.96904 5.08747,-1.45356 8.30608,-1.45356z" data-paper-data="{&quot;elementType&quot;:&quot;letter&quot;,&quot;baseline&quot;:67,&quot;baselineProportion&quot;:0.9852941176470589,&quot;fontSize&quot;:100}"></path>
            <path d="M207.09391,259.1886v7.94269h-28.29258v-34.26258h27.61771v7.94269h-17.02746v5.55469h13.6012v7.37165h-13.6012v5.45086z" data-paper-data="{&quot;elementType&quot;:&quot;letter&quot;,&quot;baseline&quot;:66,&quot;baselineProportion&quot;:1,&quot;fontSize&quot;:100}"></path>
            <path d="M223.80989,255.24321h-4.30878v11.88808h-10.3826v-34.26258h17.54659c4.36069,0 7.68312,0.95174 9.96729,2.85521c2.28417,1.90348 3.42626,4.68947 3.42626,8.35799c0,4.98365 -2.12843,8.32338 -6.3853,10.01921l8.35799,13.03016h-11.5766l-6.64486,-11.88808M219.50112,248.02731h5.13939c1.73043,0 2.95904,-0.28552 3.68582,-0.85656c0.72678,-0.57104 1.09017,-1.51413 1.09017,-2.82926c0,-1.31513 -0.37204,-2.26687 -1.11613,-2.85521c-0.74409,-0.58835 -1.96404,-0.88252 -3.65987,-0.88252h-5.13939z" data-paper-data="{&quot;elementType&quot;:&quot;letter&quot;,&quot;baseline&quot;:66,&quot;baselineProportion&quot;:1,&quot;fontSize&quot;:100}"></path>
            <path d="M264.09438,267.13129h-12.56294l-11.83616,-34.26258h11.05747l5.50278,19.67502l1.76504,6.69678l1.66122,-6.59295l5.55469,-19.77885h10.69408z" data-paper-data="{&quot;elementType&quot;:&quot;letter&quot;,&quot;baseline&quot;:66,&quot;baselineProportion&quot;:1,&quot;fontSize&quot;:100}"></path>
            <path d="M292.49079,260.01921h-10.43451l-1.97269,7.11208h-10.59025l11.52468,-34.26258h12.71868l11.5766,34.26258h-10.90173l-1.92078,-7.11208M290.67383,253.16669l-1.86887,-6.8006l-1.45356,-5.6066h-0.10383l-1.40165,5.55469l-1.92078,6.85252z" data-paper-data="{&quot;elementType&quot;:&quot;letter&quot;,&quot;baseline&quot;:66,&quot;baselineProportion&quot;:1,&quot;fontSize&quot;:100}"></path>
            <path d="M331.89275,240.8114h-10.90173v26.31989h-10.59025v-26.31989h-11.00555v-7.94269h32.49753z" data-paper-data="{&quot;elementType&quot;:&quot;letter&quot;,&quot;baseline&quot;:66,&quot;baselineProportion&quot;:1,&quot;fontSize&quot;:100}"></path>
            <path d="M344.55952,267.13129h-10.59025v-34.26258h10.59025z" data-paper-data="{&quot;elementType&quot;:&quot;letter&quot;,&quot;baseline&quot;:66,&quot;baselineProportion&quot;:1,&quot;fontSize&quot;:100}"></path>
            <path d="M364.49411,232.34958c5.36434,0 9.55199,1.54874 12.56294,4.64621c3.01095,3.09748 4.51643,7.43221 4.51643,13.0042c0,5.57199 -1.50548,9.90673 -4.51643,13.0042c-3.01095,3.09748 -7.1986,4.64621 -12.56294,4.64621c-3.53008,0 -6.5843,-0.69217 -9.16264,-2.07652c-2.57835,-1.38435 -4.55969,-3.40895 -5.94404,-6.07382c-1.38435,-2.66487 -2.07652,-5.83156 -2.07652,-9.50008c0,-3.66852 0.69217,-6.83521 2.07652,-9.50008c1.38435,-2.66487 3.36569,-4.68947 5.94404,-6.07382c2.57835,-1.38435 5.63256,-2.07652 9.16264,-2.07652M364.49411,240.44801c-2.11113,0 -3.68582,0.78735 -4.72408,2.36204c-1.03826,1.57469 -1.55739,3.97134 -1.55739,7.18995c0,3.21861 0.51913,5.61526 1.55739,7.18995c1.03826,1.57469 2.61295,2.36204 4.72408,2.36204c2.11113,0 3.67717,-0.77869 4.69813,-2.33608c1.02096,-1.55739 1.53143,-3.96269 1.53143,-7.21591c0,-3.25321 -0.51048,-5.65852 -1.53143,-7.21591c-1.02096,-1.55739 -2.587,-2.33608 -4.69813,-2.33608z" data-paper-data="{&quot;elementType&quot;:&quot;letter&quot;,&quot;baseline&quot;:67,&quot;baselineProportion&quot;:0.9852941176470589,&quot;fontSize&quot;:100}"></path>
            <path d="M416.66667,267.13129h-11.62851l-9.34434,-16.97555l-2.18035,-4.67217h-0.10383l0.20765,6.8006v14.84712h-9.24051v-34.26258h11.5766l9.34434,16.97555l2.23226,4.67217h0.05191l-0.20765,-6.8006v-14.84712h9.29243z" data-paper-data="{&quot;elementType&quot;:&quot;letter&quot;,&quot;baseline&quot;:66,&quot;baselineProportion&quot;:1,&quot;fontSize&quot;:100}"></path>
          </g>
        </g>
      </g>
    </g>
  </g>
</svg>